<svg xmlns="http://www.w3.org/2000/svg" xmlns:xlink="http://www.w3.org/1999/xlink" width="500" zoomAndPan="magnify" viewBox="0 0 375 374.999991" height="500" preserveAspectRatio="xMidYMid meet" version="1.0"><defs><g/><clipPath id="9018dc63cb"><path d="M 142 95 L 229 95 L 229 162.390625 L 142 162.390625 Z M 142 95 " clip-rule="nonzero"/></clipPath><clipPath id="58f1e2b885"><path d="M 174 115 L 199 115 L 199 136.785156 L 174 136.785156 Z M 174 115 " clip-rule="nonzero"/></clipPath><clipPath id="6877be9201"><path d="M 175.476562 118.78125 C 173.492188 122.050781 174.890625 125.234375 176.648438 126.925781 L 186.925781 136.785156 L 196.988281 126.960938 C 198.621094 125.144531 199.25 123.214844 198.902344 121.066406 C 198.421875 118.097656 195.972656 115.792969 192.949219 115.464844 C 191.09375 115.265625 189.304688 115.789062 187.90625 116.949219 C 187.527344 117.261719 187.191406 117.613281 186.898438 117.992188 C 186.550781 117.558594 186.144531 117.164062 185.683594 116.8125 C 184.074219 115.59375 182.027344 115.105469 180.0625 115.484375 C 178.199219 115.84375 176.53125 117.042969 175.476562 118.78125 " clip-rule="nonzero"/></clipPath></defs><rect x="-37.5" width="450" fill="#ffffff" y="-37.499999" height="449.999989" fill-opacity="1"/><rect x="-37.5" width="450" fill="#ffffff" y="-37.499999" height="449.999989" fill-opacity="1"/><rect x="-37.5" width="450" fill="#faf7f5" y="-37.499999" height="449.999989" fill-opacity="1"/><g clip-path="url(#9018dc63cb)"><path fill="#b47a11" d="M 168.707031 162.332031 C 169.113281 161.082031 169.128906 159.578125 169.40625 158.269531 C 169.621094 157.199219 169.921875 156.148438 170.3125 155.128906 C 170.914062 153.621094 171.832031 152.246094 173.296875 151.484375 C 176.28125 149.929688 180.308594 150.722656 183.453125 151.191406 C 193.152344 152.640625 204.128906 153.894531 213.570312 150.183594 C 232.226562 142.851562 233.207031 113.546875 216.554688 103.457031 C 203.035156 95.261719 186.855469 94.921875 171.640625 97.03125 C 163.871094 98.105469 155.285156 99.832031 149.3125 105.339844 C 142.144531 111.957031 141.691406 122.503906 142.902344 131.546875 C 144.140625 140.757812 151.433594 146.246094 160.1875 148.070312 C 161.460938 148.335938 161.515625 150.199219 161.796875 151.214844 C 162.859375 155.089844 164.285156 161.03125 168.699219 162.371094 Z M 168.707031 162.332031 " fill-opacity="1" fill-rule="nonzero"/></g><g fill="#000000" fill-opacity="1"><g transform="translate(89.108726, 212.070615)"><g><path d="M 21.71875 -50.0625 C 29.007812 -50.0625 34.21875 -48.734375 37.34375 -46.078125 C 40.46875 -43.429688 42.03125 -39.410156 42.03125 -34.015625 C 42.03125 -30.835938 41.25 -28.003906 39.6875 -25.515625 C 38.125 -23.035156 35.753906 -21.082031 32.578125 -19.65625 C 29.410156 -18.238281 25.53125 -17.53125 20.9375 -17.53125 L 17.96875 -17.53125 L 17.96875 -11.28125 C 17.96875 -9.394531 18.175781 -7.976562 18.59375 -7.03125 C 19.019531 -6.082031 19.765625 -5.429688 20.828125 -5.078125 C 21.898438 -4.722656 23.523438 -4.546875 25.703125 -4.546875 C 25.703125 -3.691406 25.554688 -2.863281 25.265625 -2.0625 C 24.984375 -1.257812 24.609375 -0.570312 24.140625 0 L 3.484375 0 C 2.960938 -0.570312 2.554688 -1.257812 2.265625 -2.0625 C 1.984375 -2.863281 1.84375 -3.691406 1.84375 -4.546875 C 3.457031 -4.546875 4.601562 -4.816406 5.28125 -5.359375 C 5.96875 -5.898438 6.3125 -6.8125 6.3125 -8.09375 L 6.3125 -41.46875 C 6.3125 -42.789062 5.96875 -43.722656 5.28125 -44.265625 C 4.601562 -44.804688 3.457031 -45.078125 1.84375 -45.078125 C 1.84375 -46.691406 2.363281 -48.1875 3.40625 -49.5625 C 6.582031 -49.5625 10.890625 -49.675781 16.328125 -49.90625 C 19.078125 -50.007812 20.875 -50.0625 21.71875 -50.0625 Z M 29.671875 -34.21875 C 29.671875 -37.25 28.972656 -39.710938 27.578125 -41.609375 C 26.179688 -43.503906 23.851562 -44.453125 20.59375 -44.453125 C 19.550781 -44.453125 18.675781 -44.351562 17.96875 -44.15625 L 17.96875 -23.359375 C 18.394531 -23.265625 19.007812 -23.21875 19.8125 -23.21875 C 23.738281 -23.21875 26.363281 -24.257812 27.6875 -26.34375 C 29.007812 -28.425781 29.671875 -31.050781 29.671875 -34.21875 Z M 29.671875 -34.21875 "/></g></g></g><g fill="#000000" fill-opacity="1"><g transform="translate(129.290025, 212.070615)"><g><path d="M 19.03125 0.921875 C 13.820312 0.921875 9.65625 -0.722656 6.53125 -4.015625 C 3.40625 -7.304688 1.84375 -12.003906 1.84375 -18.109375 C 1.84375 -22.460938 2.585938 -26.175781 4.078125 -29.25 C 5.566406 -32.320312 7.660156 -34.640625 10.359375 -36.203125 C 13.054688 -37.765625 16.179688 -38.546875 19.734375 -38.546875 C 23.140625 -38.546875 26.132812 -37.800781 28.71875 -36.3125 C 31.300781 -34.820312 33.3125 -32.632812 34.75 -29.75 C 36.195312 -26.863281 36.921875 -23.359375 36.921875 -19.234375 C 36.921875 -14.929688 36.175781 -11.265625 34.6875 -8.234375 C 33.195312 -5.203125 31.101562 -2.914062 28.40625 -1.375 C 25.707031 0.15625 22.582031 0.921875 19.03125 0.921875 Z M 19.59375 -4.1875 C 21.25 -4.1875 22.476562 -5.132812 23.28125 -7.03125 C 24.09375 -8.925781 24.5 -12.425781 24.5 -17.53125 C 24.5 -21.84375 24.285156 -25.15625 23.859375 -27.46875 C 23.429688 -29.789062 22.835938 -31.378906 22.078125 -32.234375 C 21.316406 -33.085938 20.347656 -33.515625 19.171875 -33.515625 C 17.515625 -33.515625 16.269531 -32.566406 15.4375 -30.671875 C 14.613281 -28.773438 14.203125 -25.222656 14.203125 -20.015625 C 14.203125 -15.753906 14.414062 -12.476562 14.84375 -10.1875 C 15.269531 -7.894531 15.875 -6.320312 16.65625 -5.46875 C 17.4375 -4.613281 18.414062 -4.1875 19.59375 -4.1875 Z M 19.59375 -4.1875 "/></g></g></g><g fill="#000000" fill-opacity="1"><g transform="translate(165.495762, 212.070615)"><g><path d="M 16.40625 0.703125 C 14.082031 0.703125 11.769531 0.363281 9.46875 -0.3125 C 7.175781 -1 5.296875 -1.984375 3.828125 -3.265625 C 2.367188 -4.546875 1.640625 -6.0625 1.640625 -7.8125 C 1.640625 -9.46875 2.109375 -10.800781 3.046875 -11.8125 C 3.992188 -12.832031 5.203125 -13.34375 6.671875 -13.34375 C 7.992188 -13.34375 9.117188 -12.914062 10.046875 -12.0625 C 10.972656 -11.21875 11.4375 -10.109375 11.4375 -8.734375 C 11.4375 -8.117188 11.351562 -7.585938 11.1875 -7.140625 C 11.019531 -6.691406 10.722656 -6.207031 10.296875 -5.6875 C 10.671875 -5.300781 11.378906 -5 12.421875 -4.78125 C 13.460938 -4.570312 14.578125 -4.46875 15.765625 -4.46875 C 17.367188 -4.46875 18.628906 -4.765625 19.546875 -5.359375 C 20.472656 -5.953125 20.9375 -6.722656 20.9375 -7.671875 C 20.9375 -8.941406 20.34375 -10.039062 19.15625 -10.96875 C 17.976562 -11.894531 16.085938 -13.039062 13.484375 -14.40625 C 10.835938 -15.832031 8.828125 -17.003906 7.453125 -17.921875 C 6.078125 -18.847656 4.859375 -20.101562 3.796875 -21.6875 C 2.734375 -23.269531 2.203125 -25.222656 2.203125 -27.546875 C 2.203125 -30.765625 3.523438 -33.367188 6.171875 -35.359375 C 8.828125 -37.347656 12.5 -38.34375 17.1875 -38.34375 C 21.769531 -38.34375 25.1875 -37.523438 27.4375 -35.890625 C 29.6875 -34.253906 30.8125 -32.300781 30.8125 -30.03125 C 30.8125 -28.613281 30.347656 -27.453125 29.421875 -26.546875 C 28.503906 -25.648438 27.382812 -25.203125 26.0625 -25.203125 C 24.832031 -25.203125 23.773438 -25.566406 22.890625 -26.296875 C 22.015625 -27.035156 21.578125 -28 21.578125 -29.1875 C 21.578125 -29.800781 21.671875 -30.425781 21.859375 -31.0625 C 22.054688 -31.695312 22.320312 -32.226562 22.65625 -32.65625 C 21.707031 -33.414062 20.285156 -33.796875 18.390625 -33.796875 C 16.867188 -33.796875 15.679688 -33.441406 14.828125 -32.734375 C 13.984375 -32.023438 13.5625 -31.125 13.5625 -30.03125 C 13.5625 -28.5625 14.148438 -27.351562 15.328125 -26.40625 C 16.515625 -25.457031 18.410156 -24.320312 21.015625 -23 C 23.472656 -21.726562 25.410156 -20.617188 26.828125 -19.671875 C 28.253906 -18.722656 29.488281 -17.46875 30.53125 -15.90625 C 31.570312 -14.34375 32.09375 -12.425781 32.09375 -10.15625 C 32.09375 -6.457031 30.585938 -3.722656 27.578125 -1.953125 C 24.578125 -0.179688 20.851562 0.703125 16.40625 0.703125 Z M 16.40625 0.703125 "/></g></g></g><g fill="#000000" fill-opacity="1"><g transform="translate(196.66106, 212.070615)"><g><path d="M 16.40625 -31.3125 L 16.40625 -11.28125 C 16.40625 -9.863281 16.6875 -8.882812 17.25 -8.34375 C 17.820312 -7.800781 18.628906 -7.53125 19.671875 -7.53125 C 20.566406 -7.53125 21.507812 -7.765625 22.5 -8.234375 C 23.5 -8.710938 24.28125 -9.304688 24.84375 -10.015625 C 25.320312 -9.628906 25.664062 -9.054688 25.875 -8.296875 C 26.09375 -7.546875 26.203125 -6.863281 26.203125 -6.25 C 26.203125 -5.15625 25.820312 -4.085938 25.0625 -3.046875 C 24.300781 -2.003906 23.164062 -1.148438 21.65625 -0.484375 C 20.144531 0.171875 18.320312 0.5 16.1875 0.5 C 12.875 0.5 10.210938 -0.445312 8.203125 -2.34375 C 6.191406 -4.238281 5.1875 -7.382812 5.1875 -11.78125 L 5.1875 -31.3125 L 0.703125 -31.3125 L 0.703125 -35.640625 C 1.941406 -35.828125 3.140625 -36.617188 4.296875 -38.015625 C 5.453125 -39.410156 6.441406 -41.160156 7.265625 -43.265625 C 8.097656 -45.378906 8.632812 -47.476562 8.875 -49.5625 C 9.726562 -49.695312 10.507812 -49.765625 11.21875 -49.765625 C 12.925781 -49.765625 14.191406 -49.28125 15.015625 -48.3125 C 15.847656 -47.34375 16.265625 -46.265625 16.265625 -45.078125 L 16.265625 -37.625 L 24.5 -37.625 C 24.5 -36.207031 24.425781 -34.988281 24.28125 -33.96875 C 24.132812 -32.957031 23.828125 -32.070312 23.359375 -31.3125 Z M 16.40625 -31.3125 "/></g></g></g><g fill="#000000" fill-opacity="1"><g transform="translate(220.869123, 212.070615)"><g><path d="M 22.71875 -7.234375 C 25.695312 -7.234375 28.46875 -8.179688 31.03125 -10.078125 C 31.40625 -9.703125 31.734375 -9.132812 32.015625 -8.375 C 32.304688 -7.613281 32.453125 -6.953125 32.453125 -6.390625 C 32.453125 -5.535156 31.878906 -4.550781 30.734375 -3.4375 C 29.597656 -2.332031 28.023438 -1.375 26.015625 -0.5625 C 24.003906 0.238281 21.742188 0.640625 19.234375 0.640625 C 15.734375 0.640625 12.671875 -0.113281 10.046875 -1.625 C 7.421875 -3.144531 5.394531 -5.347656 3.96875 -8.234375 C 2.550781 -11.117188 1.84375 -14.523438 1.84375 -18.453125 C 1.84375 -22.484375 2.613281 -26.007812 4.15625 -29.03125 C 5.695312 -32.0625 7.816406 -34.394531 10.515625 -36.03125 C 13.210938 -37.664062 16.265625 -38.484375 19.671875 -38.484375 C 23.972656 -38.484375 27.398438 -37.226562 29.953125 -34.71875 C 32.515625 -32.207031 33.796875 -28.726562 33.796875 -24.28125 C 33.796875 -22.195312 33.460938 -20.550781 32.796875 -19.34375 C 32.140625 -18.132812 30.957031 -17.53125 29.25 -17.53125 L 13.921875 -17.53125 C 14.203125 -10.664062 17.132812 -7.234375 22.71875 -7.234375 Z M 19.234375 -33.578125 C 17.773438 -33.578125 16.546875 -32.757812 15.546875 -31.125 C 14.554688 -29.5 14.015625 -26.769531 13.921875 -22.9375 L 21.09375 -22.9375 C 21.84375 -22.9375 22.335938 -23.195312 22.578125 -23.71875 C 22.816406 -24.238281 22.9375 -25.039062 22.9375 -26.125 C 22.9375 -28.914062 22.601562 -30.851562 21.9375 -31.9375 C 21.269531 -33.03125 20.367188 -33.578125 19.234375 -33.578125 Z M 19.234375 -33.578125 "/></g></g></g><g fill="#000000" fill-opacity="1"><g transform="translate(253.951209, 212.070615)"><g><path d="M 26.125 -38.546875 C 28.257812 -38.546875 29.820312 -38 30.8125 -36.90625 C 31.8125 -35.820312 32.3125 -34.335938 32.3125 -32.453125 C 32.3125 -30.410156 31.773438 -28.75 30.703125 -27.46875 C 29.640625 -26.195312 28.207031 -25.5625 26.40625 -25.5625 C 24.84375 -25.5625 23.578125 -26.007812 22.609375 -26.90625 C 21.640625 -27.8125 21.15625 -28.878906 21.15625 -30.109375 C 21.15625 -30.859375 21.226562 -31.445312 21.375 -31.875 C 19.664062 -31.445312 18.222656 -30.710938 17.046875 -29.671875 L 17.046875 -8.375 C 17.046875 -7.195312 17.207031 -6.296875 17.53125 -5.671875 C 17.863281 -5.054688 18.515625 -4.59375 19.484375 -4.28125 C 20.453125 -3.976562 21.910156 -3.828125 23.859375 -3.828125 C 23.859375 -2.984375 23.757812 -2.265625 23.5625 -1.671875 C 23.375 -1.078125 23.019531 -0.519531 22.5 0 L 3.546875 0 C 2.460938 -1.09375 1.921875 -2.367188 1.921875 -3.828125 C 3.285156 -3.828125 4.265625 -4.125 4.859375 -4.71875 C 5.453125 -5.3125 5.75 -6.316406 5.75 -7.734375 L 5.75 -28.265625 C 5.75 -29.535156 5.40625 -30.429688 4.71875 -30.953125 C 4.03125 -31.472656 2.8125 -31.734375 1.0625 -31.734375 L 1.0625 -34.9375 C 2.625 -35.832031 4.691406 -36.625 7.265625 -37.3125 C 9.847656 -38 11.851562 -38.34375 13.28125 -38.34375 C 14.414062 -38.34375 15.21875 -37.9375 15.6875 -37.125 C 16.164062 -36.320312 16.40625 -34.71875 16.40625 -32.3125 C 17.25 -33.914062 18.59375 -35.351562 20.4375 -36.625 C 22.289062 -37.90625 24.1875 -38.546875 26.125 -38.546875 Z M 26.125 -38.546875 "/></g></g></g><g clip-path="url(#58f1e2b885)"><g clip-path="url(#6877be9201)"><path fill="#faf7f5" d="M 174.503906 115.359375 L 198.996094 115.359375 L 198.996094 136.785156 L 174.503906 136.785156 Z M 174.503906 115.359375 " fill-opacity="1" fill-rule="nonzero"/></g></g><g fill="#000000" fill-opacity="1"><g transform="translate(116.667968, 239.095679)"><g><path d="M 10.125 -9.453125 C 9.894531 -9.828125 9.582031 -10.113281 9.1875 -10.3125 C 8.789062 -10.519531 8.328125 -10.625 7.796875 -10.625 C 6.804688 -10.625 6.03125 -10.300781 5.46875 -9.65625 C 4.90625 -9.019531 4.625 -8.160156 4.625 -7.078125 C 4.625 -5.867188 4.925781 -4.945312 5.53125 -4.3125 C 6.132812 -3.675781 7.019531 -3.359375 8.1875 -3.359375 C 9.550781 -3.359375 10.53125 -3.976562 11.125 -5.21875 L 7.1875 -5.21875 L 7.1875 -8.046875 L 14.5 -8.046875 L 14.5 -4.234375 C 14.195312 -3.492188 13.75 -2.796875 13.15625 -2.140625 C 12.5625 -1.484375 11.8125 -0.945312 10.90625 -0.53125 C 10 -0.113281 8.960938 0.09375 7.796875 0.09375 C 6.390625 0.09375 5.140625 -0.207031 4.046875 -0.8125 C 2.960938 -1.414062 2.125 -2.257812 1.53125 -3.34375 C 0.9375 -4.4375 0.640625 -5.679688 0.640625 -7.078125 C 0.640625 -8.460938 0.9375 -9.695312 1.53125 -10.78125 C 2.125 -11.875 2.957031 -12.722656 4.03125 -13.328125 C 5.113281 -13.929688 6.363281 -14.234375 7.78125 -14.234375 C 9.550781 -14.234375 11.015625 -13.804688 12.171875 -12.953125 C 13.335938 -12.109375 14.0625 -10.941406 14.34375 -9.453125 Z M 10.125 -9.453125 "/></g></g></g><g fill="#000000" fill-opacity="1"><g transform="translate(134.302004, 239.095679)"><g><path d="M 5.046875 -10.953125 L 5.046875 -8.65625 L 9.546875 -8.65625 L 9.546875 -5.6875 L 5.046875 -5.6875 L 5.046875 -3.140625 L 10.140625 -3.140625 L 10.140625 0 L 1.125 0 L 1.125 -14.09375 L 10.140625 -14.09375 L 10.140625 -10.953125 Z M 5.046875 -10.953125 "/></g></g></g><g fill="#000000" fill-opacity="1"><g transform="translate(147.757687, 239.095679)"><g><path d="M 14.1875 0 L 10.265625 0 L 5.046875 -7.875 L 5.046875 0 L 1.125 0 L 1.125 -14.09375 L 5.046875 -14.09375 L 10.265625 -6.125 L 10.265625 -14.09375 L 14.1875 -14.09375 Z M 14.1875 0 "/></g></g></g><g fill="#000000" fill-opacity="1"><g transform="translate(165.551655, 239.095679)"><g><path d="M 5.046875 -10.953125 L 5.046875 -8.65625 L 9.546875 -8.65625 L 9.546875 -5.6875 L 5.046875 -5.6875 L 5.046875 -3.140625 L 10.140625 -3.140625 L 10.140625 0 L 1.125 0 L 1.125 -14.09375 L 10.140625 -14.09375 L 10.140625 -10.953125 Z M 5.046875 -10.953125 "/></g></g></g><g fill="#000000" fill-opacity="1"><g transform="translate(179.007336, 239.095679)"><g><path d="M 8.265625 0 L 5.453125 -5.203125 L 5.046875 -5.203125 L 5.046875 0 L 1.125 0 L 1.125 -14.09375 L 7.296875 -14.09375 C 8.429688 -14.09375 9.390625 -13.894531 10.171875 -13.5 C 10.960938 -13.113281 11.554688 -12.578125 11.953125 -11.890625 C 12.359375 -11.203125 12.5625 -10.429688 12.5625 -9.578125 C 12.5625 -8.617188 12.296875 -7.773438 11.765625 -7.046875 C 11.242188 -6.316406 10.472656 -5.800781 9.453125 -5.5 L 12.640625 0 Z M 5.046875 -7.875 L 6.984375 -7.875 C 7.515625 -7.875 7.910156 -8 8.171875 -8.25 C 8.441406 -8.507812 8.578125 -8.878906 8.578125 -9.359375 C 8.578125 -9.816406 8.441406 -10.171875 8.171875 -10.421875 C 7.898438 -10.679688 7.503906 -10.8125 6.984375 -10.8125 L 5.046875 -10.8125 Z M 5.046875 -7.875 "/></g></g></g><g fill="#000000" fill-opacity="1"><g transform="translate(194.722127, 239.095679)"><g><path d="M 10.046875 -2.296875 L 5.046875 -2.296875 L 4.28125 0 L 0.15625 0 L 5.296875 -14.09375 L 9.8125 -14.09375 L 14.9375 0 L 10.796875 0 Z M 9.0625 -5.296875 L 7.546875 -9.859375 L 6.046875 -5.296875 Z M 9.0625 -5.296875 "/></g></g></g><g fill="#000000" fill-opacity="1"><g transform="translate(212.316176, 239.095679)"><g><path d="M 11.734375 -14.09375 L 11.734375 -10.984375 L 7.984375 -10.984375 L 7.984375 0 L 4.0625 0 L 4.0625 -10.984375 L 0.34375 -10.984375 L 0.34375 -14.09375 Z M 11.734375 -14.09375 "/></g></g></g><g fill="#000000" fill-opacity="1"><g transform="translate(226.89141, 239.095679)"><g><path d="M 7.875 0.140625 C 6.5625 0.140625 5.347656 -0.164062 4.234375 -0.78125 C 3.128906 -1.40625 2.253906 -2.265625 1.609375 -3.359375 C 0.960938 -4.460938 0.640625 -5.707031 0.640625 -7.09375 C 0.640625 -8.488281 0.960938 -9.734375 1.609375 -10.828125 C 2.253906 -11.929688 3.128906 -12.785156 4.234375 -13.390625 C 5.347656 -14.003906 6.5625 -14.3125 7.875 -14.3125 C 9.207031 -14.3125 10.425781 -14.003906 11.53125 -13.390625 C 12.632812 -12.785156 13.503906 -11.929688 14.140625 -10.828125 C 14.773438 -9.734375 15.09375 -8.488281 15.09375 -7.09375 C 15.09375 -5.707031 14.773438 -4.460938 14.140625 -3.359375 C 13.503906 -2.265625 12.628906 -1.40625 11.515625 -0.78125 C 10.410156 -0.164062 9.195312 0.140625 7.875 0.140625 Z M 7.875 -3.5 C 8.875 -3.5 9.664062 -3.820312 10.25 -4.46875 C 10.832031 -5.125 11.125 -6 11.125 -7.09375 C 11.125 -8.21875 10.832031 -9.101562 10.25 -9.75 C 9.664062 -10.394531 8.875 -10.71875 7.875 -10.71875 C 6.863281 -10.71875 6.070312 -10.394531 5.5 -9.75 C 4.925781 -9.101562 4.640625 -8.21875 4.640625 -7.09375 C 4.640625 -5.988281 4.925781 -5.113281 5.5 -4.46875 C 6.070312 -3.820312 6.863281 -3.5 7.875 -3.5 Z M 7.875 -3.5 "/></g></g></g><g fill="#000000" fill-opacity="1"><g transform="translate(245.125212, 239.095679)"><g><path d="M 8.265625 0 L 5.453125 -5.203125 L 5.046875 -5.203125 L 5.046875 0 L 1.125 0 L 1.125 -14.09375 L 7.296875 -14.09375 C 8.429688 -14.09375 9.390625 -13.894531 10.171875 -13.5 C 10.960938 -13.113281 11.554688 -12.578125 11.953125 -11.890625 C 12.359375 -11.203125 12.5625 -10.429688 12.5625 -9.578125 C 12.5625 -8.617188 12.296875 -7.773438 11.765625 -7.046875 C 11.242188 -6.316406 10.472656 -5.800781 9.453125 -5.5 L 12.640625 0 Z M 5.046875 -7.875 L 6.984375 -7.875 C 7.515625 -7.875 7.910156 -8 8.171875 -8.25 C 8.441406 -8.507812 8.578125 -8.878906 8.578125 -9.359375 C 8.578125 -9.816406 8.441406 -10.171875 8.171875 -10.421875 C 7.898438 -10.679688 7.503906 -10.8125 6.984375 -10.8125 L 5.046875 -10.8125 Z M 5.046875 -7.875 "/></g></g></g></svg>